<svg id="visual" viewBox="0 0 900 900" width="900" height="900" xmlns="http://www.w3.org/2000/svg" xmlns:xlink="http://www.w3.org/1999/xlink" version="1.1"><g transform="translate(451.27641863511906 509.0499798198574)"><path d="M236.8 -343.2C310.3 -367.7 375.5 -311.1 334.7 -240.4C293.9 -169.7 146.9 -84.8 111.4 -20.5C75.9 43.8 151.8 87.7 183.2 141.9C214.5 196.2 201.3 260.9 163.3 240.3C125.3 219.8 62.7 113.9 6.2 103.2C-50.3 92.5 -100.7 177 -170.4 215.9C-240.1 254.9 -329.2 248.2 -346.5 204.6C-363.9 161 -309.4 80.5 -273.8 20.6C-238.1 -39.3 -221.3 -78.7 -225.6 -159.9C-230 -241 -255.6 -364.1 -221.6 -362.3C-187.5 -360.4 -93.8 -233.7 -6 -223.2C81.7 -212.8 163.3 -318.6 236.8 -343.2" fill="none" stroke="#adff2f" stroke-width="6"></path></g></svg>