<svg id="visual" viewBox="0 0 900 900" width="900" height="900" xmlns="http://www.w3.org/2000/svg" xmlns:xlink="http://www.w3.org/1999/xlink" version="1.1"><g transform="translate(541.2495066417848 396.4127485838083)"><path d="M171.5 -280.7C185.6 -288.8 135.2 -168.9 116.2 -100.8C97.2 -32.7 109.6 -16.3 174.1 37.2C238.7 90.8 355.3 181.7 336.5 184.3C317.7 186.9 163.3 101.2 84.7 149.6C6 197.9 3 380.2 -4.5 388C-12 395.8 -24 229.1 -99.1 178.7C-174.1 128.2 -312.2 194.1 -399.2 183.7C-486.2 173.3 -522.1 86.7 -521 0.7C-519.8 -85.3 -481.6 -170.7 -401.2 -192.5C-320.8 -214.3 -198.1 -172.5 -124.2 -129.8C-50.3 -87.2 -25.2 -43.6 26.7 -89.9C78.7 -136.3 157.3 -272.5 171.5 -280.7" fill="none" stroke="#adff2f" stroke-width="6"></path></g></svg>