<?xml version="1.0" standalone="no"?>
<!DOCTYPE svg PUBLIC "-//W3C//DTD SVG 20010904//EN"
 "http://www.w3.org/TR/2001/REC-SVG-20010904/DTD/svg10.dtd">
<svg version="1.0" xmlns="http://www.w3.org/2000/svg"
 width="417.000000pt" height="545.000000pt" viewBox="0 0 417.000000 545.000000"
 preserveAspectRatio="xMidYMid meet">

<g transform="translate(0.000000,545.000000) scale(0.100000,-0.100000)"
fill="#adff2f" stroke="#000000" stroke-width="10">
<path d="M2029 5340 c-115 -20 -177 -75 -281 -249 -118 -198 -1396 -2359
-1499 -2536 -96 -163 -116 -222 -105 -311 13 -115 86 -215 191 -265 l60 -29
677 0 677 0 3 -717 3 -718 29 -62 c33 -73 103 -144 174 -176 38 -18 65 -22
137 -22 95 1 136 15 213 72 38 29 6 -21 520 793 217 344 573 906 791 1250 493
779 486 769 501 831 36 150 -38 304 -182 381 l-43 23 -732 3 -732 3 -3 742
c-3 738 -3 742 -25 789 -64 140 -222 224 -374 198z m110 -244 c15 -8 32 -26
39 -41 9 -19 12 -233 12 -850 l0 -825 811 0 c577 0 817 -3 832 -11 35 -18 57
-51 57 -88 0 -39 32 13 -562 -926 -223 -352 -572 -905 -777 -1230 -205 -324
-383 -600 -397 -612 -27 -25 -81 -31 -115 -13 -50 27 -49 10 -49 875 l0 805
-766 0 c-544 0 -772 3 -787 11 -12 6 -30 21 -39 33 -36 43 -24 76 95 279 166
281 906 1532 1075 1817 80 135 210 355 289 490 79 135 157 257 173 273 34 30
67 34 109 13z"/>
</g>
</svg>
